<svg width="196" height="196" viewBox="0 0 196 196" fill="none" xmlns="http://www.w3.org/2000/svg">
<path d="M149.646 74.6188L162.378 87.3588H183.252V108.241L196 120.981V74.6188H149.646ZM16.3333 77.7467L0 118.253H10.6902L13.7118 110.234H31.85L35.182 118.253H46.109L28.028 77.7467H16.3333ZM50.7068 77.7467V118.213H60.8172V92.9612L71.7442 105.718H73.2795L84.2065 93.0102V118.253H94.3168V77.7467H85.505L72.5037 92.8142L59.5105 77.7467H50.7068ZM102.018 77.7467V118.253H118.817C134.979 118.253 142.337 109.711 142.337 98.0653C142.337 86.9587 134.685 77.7467 119.903 77.7467H102.018ZM112.12 85.1783H118.588C128.143 85.1783 131.9 90.9848 131.9 98C131.9 103.945 128.862 110.838 118.703 110.838H112.12V85.1783ZM22.4093 87.4078L28.8692 103.186H16.3987L22.4093 87.4078ZM162.362 89.915L149.262 103.006V121.381H167.605L180.704 108.257H162.362V89.915Z" fill="white"/>
</svg>
