<svg width="196" height="196" viewBox="0 0 196 196" fill="none" xmlns="http://www.w3.org/2000/svg">
<path d="M195.216 88.102V77.763H157.192C149.254 77.763 145.677 82.663 145.089 87.416V87.563V77.763H133.917V88.102H145.04H195.216ZM145.04 91.826L133.868 91.189V103.096C133.868 106.82 132.006 107.947 125.538 107.947H116.62C111.279 107.947 109.025 106.428 109.025 103.096V90.062L97.706 89.229V104.027H97.461C96.824 99.715 95.207 94.717 84.427 93.982L49 91.63C49 97.069 52.871 100.303 58.947 100.94L83.643 103.439C85.603 103.586 87.024 104.174 87.024 105.791C87.024 107.555 85.554 107.751 83.3 107.751H48.559V91.63L37.24 90.895V118.237H83.349C93.639 118.237 96.922 112.896 97.412 108.437H97.657C98.931 115.493 105.105 118.237 115.542 118.237H127.057C139.258 118.237 145.04 114.513 145.04 105.791V91.826ZM180.957 93.933L145.53 91.826C145.53 97.265 149.107 100.891 155.183 101.381L180.418 103.341C182.378 103.488 183.554 103.978 183.554 105.595C183.554 107.114 182.182 107.702 179.34 107.702H144.942V118.237H180.075C191.149 118.237 196 114.366 196 105.546C196 97.608 191.639 94.619 180.957 93.933ZM97.706 77.763H109.025V88.102H97.706V77.763ZM31.017 90.405L18.718 89.18L0 118.237H13.769L31.017 90.405ZM95.648 77.763H61.103C53.067 77.763 49.539 82.761 48.706 87.563V77.763H29.547C26.852 77.763 25.578 78.596 24.304 80.458L19.012 88.102H95.648V77.763Z" fill="white"/>
</svg>
