<svg width="196" height="196" viewBox="0 0 196 196" fill="none" xmlns="http://www.w3.org/2000/svg">
<g clip-path="url(#clip0_2311_1328)">
<path fill-rule="evenodd" clip-rule="evenodd" d="M175.637 161.469H193.118V165.445H181.016V171.392H191.637V175.141H181.016V181.717H193.118V185.692H175.637V161.469ZM150.618 161.469H171.415V165.445H163.741V185.673H158.383V165.445H150.618V161.469ZM124.693 161.469H130.581L136.322 171.696L141.76 161.469H147.726L138.579 176.201V185.673H133.161V175.424L124.693 161.469ZM107.113 182.246H112.147C112.826 182.246 113.434 182.155 113.964 181.974C114.474 181.801 114.94 181.518 115.329 181.146C116.046 180.443 116.409 179.621 116.409 178.683C116.409 178.075 116.246 177.514 115.922 176.989C115.605 176.467 115.113 176.026 114.454 175.671C113.803 175.315 113.033 175.141 112.146 175.141H107.112L107.113 182.246ZM107.113 171.392H111.617C112.782 171.392 113.753 171.05 114.535 170.371C115.264 169.671 115.633 168.904 115.633 168.058C115.633 167.209 115.297 166.478 114.63 165.859C114.263 165.532 113.832 165.285 113.363 165.134C112.853 164.959 112.271 164.876 111.6 164.876H107.114V171.392H107.113ZM101.902 161.469H113.001C114.656 161.469 116.079 161.771 117.261 162.381C118.45 162.98 119.342 163.771 119.944 164.731C120.546 165.703 120.844 166.698 120.844 167.738C120.852 168.952 120.448 170.132 119.698 171.087C118.936 172.083 117.837 172.755 116.41 173.099C117.448 173.197 118.437 173.589 119.26 174.229C120.072 174.857 120.727 175.664 121.175 176.588C121.612 177.482 121.842 178.464 121.846 179.459C121.855 180.545 121.557 181.612 120.985 182.535C120.41 183.479 119.531 184.235 118.348 184.811C117.172 185.386 115.699 185.671 113.927 185.671H101.902V161.469ZM81.4216 161.469H87.7127L95.3349 180.008L97.7397 185.672H91.9987L90.1653 180.006H78.1545L76.0172 185.672H70.1023L78.6416 167.202L81.4216 161.469ZM88.3971 175.953L84.5382 165.108L80.0835 175.959L88.3971 175.953ZM33.0541 161.469H38.7371V185.673H33.0541V161.469ZM26.3471 161.696V165.863H15.7161C11.5807 165.863 8.7366 170.91 8.58509 173.404C8.4346 175.896 10.8069 181.366 13.7852 181.386L20.6254 181.432V172.02H26.3471V185.124L14.7237 185.628C6.81276 185.972 2.8817 179.482 2.8817 173.72C2.8817 167.961 7.36592 161.697 16.7889 161.697L26.3471 161.696ZM66.9887 161.696V165.863H56.3568C52.2223 165.863 49.3772 170.91 49.2257 173.404C49.0752 175.896 51.4475 181.366 54.4258 181.386L61.266 181.432V172.02H66.9877V185.124L55.3643 185.628C47.4534 185.972 43.5223 179.482 43.5223 173.72C43.5223 167.961 48.0066 161.697 57.4305 161.697L66.9887 161.696ZM101.921 105.121C83.3465 105.121 68.1957 89.9711 68.1957 71.3956C68.1957 52.8192 83.3434 37.0807 102.868 37.0807H155.437V10.3086H98.5247C62.9173 10.3086 34.4898 38.7361 34.4898 73.591C34.4898 103.503 55.7487 129.704 84.9175 135.638L158.076 62.477H113.442V104.809L101.921 105.121Z" fill="#2D68AE"/>
<path fill-rule="evenodd" clip-rule="evenodd" d="M136.182 85.5347H189.188L136.182 138.541V85.5347Z" fill="#C92230"/>
</g>
<defs>
<clipPath id="clip0_2311_1328">
<rect width="196" height="196" fill="white"/>
</clipPath>
</defs>
</svg>
