<svg width="196" height="196" viewBox="0 0 196 196" fill="none" xmlns="http://www.w3.org/2000/svg">
<g clip-path="url(#clip0_2311_1322)">
<path d="M57.7404 88.2061V119.854H47.6586V80.0721H68.4591C77.2975 80.0721 80.2926 86.3257 80.2926 91.973V119.854H70.2415V92.0342C70.2415 89.6394 69.0287 88.2061 66.0642 88.2061H57.7404ZM126.267 87.7284C122.788 87.7284 120.142 89.4801 119.027 91.9056C118.39 93.247 118.072 94.7109 118.072 96.2115H133.574C133.384 91.9056 131.406 87.7284 126.267 87.7284ZM118.065 103.071C118.065 108.21 121.257 112.038 126.996 112.038C131.43 112.038 133.629 110.795 136.214 108.21L142.437 114.176C138.48 118.102 134.272 120.491 126.904 120.491C117.269 120.491 108.051 115.23 108.051 99.9171C108.051 86.8035 116.093 79.4045 126.683 79.4045C137.433 79.4045 143.625 88.0836 143.625 99.4394V103.047H118.072L118.065 103.071ZM99.5312 119.787C91.3299 119.787 87.857 114.078 87.857 108.431V69.2248H97.9081V80.0721H105.466V88.2061H97.9081V107.794C97.9081 110.121 98.9922 111.401 101.387 111.401H105.472V119.793L99.5312 119.787ZM38.6977 74.5841H28.5547V64.9189H38.6977V74.5841ZM38.7284 120.264C31.1334 119.529 28.5547 114.936 28.5547 109.607V80.066H38.6977V120.295L38.7284 120.264ZM159.636 119.407C152.041 118.672 149.493 114.078 149.493 108.786V63.5836H159.636V119.444V119.407ZM195.136 70.119C185.949 25.235 98.8269 22.393 42.7157 56.5583V60.3558C98.7656 31.5193 178.329 31.7091 185.569 72.9916C187.964 86.6749 180.271 100.903 166.526 109.105V119.823C183.082 113.76 200.055 94.1106 195.143 70.119H195.136ZM93.0877 148.592C54.3594 152.163 13.9711 146.516 8.32387 116.277C5.57987 101.344 12.4092 85.5234 21.3701 75.6989V70.4681C5.16337 84.6965 -3.63826 102.722 1.43324 124.001C7.90737 151.306 42.5565 166.778 95.4152 161.645C116.344 159.605 143.748 152.874 162.76 142.406V127.571C145.499 137.874 116.883 146.394 93.0877 148.592ZM171.371 66.5481C171.371 66.0704 171.053 65.9111 170.416 65.9111H169.779V67.3138H170.416C171.053 67.3138 171.371 67.1239 171.371 66.6461V66.5481ZM172.364 70.021H171.598C171.537 70.021 171.469 69.9904 171.439 69.923L170.416 68.1713C170.385 68.1406 170.318 68.11 170.257 68.11H169.809V69.8311C169.809 69.9291 169.712 70.021 169.62 70.021H168.952C168.854 70.021 168.762 69.923 168.762 69.8311V65.4579C168.762 65.2374 168.891 65.1087 169.081 65.072C169.497 65.0414 169.908 65.0414 170.324 65.0414C171.567 65.0414 172.333 65.3905 172.333 66.5726V66.6339C172.333 67.3689 171.947 67.7486 171.408 67.9446L172.462 69.7331C172.462 69.7638 172.492 69.8311 172.492 69.8618C172.523 69.923 172.462 70.021 172.364 70.021ZM170.575 64.2145C168.725 64.2145 167.225 65.7151 167.225 67.5649C167.255 69.4146 168.756 70.9153 170.606 70.9153C172.425 70.9153 173.925 69.4146 173.925 67.5955C173.925 65.7458 172.425 64.2145 170.575 64.2145ZM170.575 71.6196C168.339 71.6196 166.526 69.8311 166.526 67.6016C166.526 65.3721 168.346 63.553 170.575 63.553C172.774 63.553 174.624 65.3721 174.624 67.6016C174.624 69.8311 172.774 71.6196 170.575 71.6196Z" fill="#0071C5"/>
</g>
<defs>
<clipPath id="clip0_2311_1322">
<rect width="196" height="196" fill="white"/>
</clipPath>
</defs>
</svg>
