<svg width="196" height="196" viewBox="0 0 196 196" fill="none" xmlns="http://www.w3.org/2000/svg">
<g clip-path="url(#clip0_2311_1315)">
<path d="M194.632 165.594C194.632 167.697 193.088 169.108 191.26 169.108V169.096C189.38 169.108 187.864 167.697 187.864 165.595C187.864 163.493 189.38 162.085 191.26 162.085C193.088 162.085 194.632 163.492 194.632 165.594ZM196 165.594C196 162.707 193.758 161.032 191.26 161.032C188.744 161.032 186.502 162.707 186.502 165.594C186.502 168.478 188.745 170.16 191.26 170.16C193.758 170.16 196 168.478 196 165.594ZM190.473 165.98H190.981L192.157 168.045H193.448L192.145 165.893C192.818 165.845 193.372 165.525 193.372 164.619C193.372 163.492 192.595 163.131 191.281 163.131H189.379V168.045H190.472L190.473 165.98ZM190.473 165.148V163.965H191.234C191.648 163.965 192.212 163.998 192.212 164.503C192.212 165.052 191.92 165.148 191.432 165.148H190.473ZM164.078 140.453L169.988 156.621H157.985L164.078 140.453ZM157.748 134.157L144.128 168.666H153.745L155.899 162.568H172.018L174.057 168.666H184.497L170.776 134.153L157.748 134.157ZM130.404 168.679H140.161V134.147L130.402 134.145L130.404 168.679ZM62.6647 134.145L54.5238 161.514L46.7253 134.147L36.1969 134.145L47.3348 168.679H61.3921L72.6197 134.145H62.6647ZM102.106 141.664H106.3C112.384 141.664 116.32 144.396 116.32 151.484C116.32 158.574 112.384 161.306 106.3 161.306H102.106V141.664ZM92.4305 134.145V168.679H108.249C116.677 168.679 119.43 167.278 122.405 164.136C124.507 161.929 125.867 157.086 125.867 151.792C125.867 146.936 124.716 142.608 122.711 139.911C119.097 135.088 113.89 134.145 106.12 134.145H92.4305ZM0 134.097V168.679H9.84015V142.42L17.4647 142.423C19.9893 142.423 21.7889 143.052 23.0046 144.351C24.5466 145.993 25.1762 148.644 25.1762 153.494V168.679H34.7113V149.572C34.7113 135.935 26.0194 134.097 17.5149 134.097H0ZM76.7264 134.145L76.7303 168.679H86.4835V134.145H76.7264Z" fill="white"/>
<path d="M26.2235 65.3828C26.2235 65.3828 38.7734 46.8663 63.8314 44.9507V38.233C36.0765 40.462 12.0419 63.9691 12.0419 63.9691C12.0419 63.9691 25.6547 103.321 63.8314 106.924V99.784C35.8155 96.2595 26.2235 65.3828 26.2235 65.3828ZM63.8314 85.5834V92.1232C42.6576 88.3478 36.7803 66.3381 36.7803 66.3381C36.7803 66.3381 46.9467 55.0758 63.8314 53.2495V60.4251C63.8186 60.4251 63.8096 60.4212 63.799 60.4212C54.937 59.3577 48.0141 67.6363 48.0141 67.6363C48.0141 67.6363 51.8944 81.5726 63.8314 85.5834ZM63.8314 25.8426V38.233C64.6461 38.1705 65.4609 38.1175 66.2801 38.0897C97.8344 37.0262 118.394 63.9691 118.394 63.9691C118.394 63.9691 94.7806 92.6826 70.1794 92.6826C67.9247 92.6826 65.8139 92.4735 63.8314 92.1221V99.784C65.5848 100.009 67.3508 100.123 69.1187 100.125C92.0118 100.125 108.567 88.4337 124.598 74.5961C127.256 76.7247 138.138 81.9033 140.374 84.1697C125.132 96.9315 89.6087 107.218 69.4695 107.218C67.5282 107.218 65.6639 107.101 63.8314 106.924V117.69H150.846V25.8426H63.8314ZM63.8314 53.2495V44.9507C64.6378 44.8944 65.4503 44.8515 66.2801 44.8253C88.9708 44.1125 103.857 64.3243 103.857 64.3243C103.857 64.3243 87.7785 86.6547 70.5385 86.6547C68.0574 86.6547 65.8329 86.256 63.8308 85.5828V60.4245C72.6644 61.4919 74.4422 65.3939 79.753 74.247L91.5651 64.2875C91.5651 64.2875 82.9429 52.9796 68.4082 52.9796C66.8278 52.979 65.3159 53.0905 63.8314 53.2495Z" fill="#77B900"/>
</g>
<defs>
<clipPath id="clip0_2311_1315">
<rect width="196" height="196" fill="white"/>
</clipPath>
</defs>
</svg>
