<svg width="196" height="196" viewBox="0 0 196 196" fill="none" xmlns="http://www.w3.org/2000/svg">
<g clip-path="url(#clip0_2311_1333)">
<path d="M87.3291 7.16273C96.5935 7.1408 105.858 7.15859 115.123 7.15374C112.996 8.86821 111.014 10.6964 108.877 12.4025C102.442 12.4328 96.0031 12.4066 89.5694 12.4152V25.2403H105.413V21.2942H99.4407C97.4696 19.6891 95.4981 18.0848 93.5383 16.4755C100.402 16.4665 107.271 16.4755 114.14 16.4708C114.14 19.4088 114.135 22.3464 114.146 25.2843C112.346 26.7708 110.52 28.2349 108.737 29.7303C108.248 30.0681 107.808 30.6333 107.062 30.4978C100.488 30.5068 93.9086 30.502 87.3353 30.4978C85.2943 28.7264 83.0657 27.1088 80.9819 25.3808C80.6753 21.1365 80.8795 16.8265 80.8848 12.5599C82.8557 10.6396 85.2293 8.99976 87.3291 7.16273ZM66.3831 15.3882C69.8689 14.4895 73.3436 13.5555 76.8833 12.8057C76.0935 14.235 75.2988 15.6643 74.5147 17.0984C72.1349 17.6945 69.761 18.291 67.3768 18.8698C67.3658 21.8027 67.5327 24.7317 67.5377 27.6652C69.4553 27.1697 71.3832 26.7046 73.3223 26.2535C73.3223 25.3677 73.3166 24.4821 73.3273 23.601C72.5648 23.7586 71.8074 23.9165 71.0499 24.0741C70.2874 23.1359 69.5299 22.1931 68.8156 21.2374C71.3614 20.5839 73.934 19.9833 76.512 19.3957C76.6359 21.4784 76.7966 23.5657 76.6249 25.6484C76.0501 27.082 75.1318 28.4017 74.4014 29.7874C71.834 30.3618 69.2829 30.989 66.7428 31.6376C65.9424 30.5462 64.7445 29.612 64.2186 28.4106C64.2237 25.4944 63.8803 22.5701 64.1273 19.6588C64.7346 18.1898 65.6151 16.8047 66.3831 15.3882ZM121.159 14.2569C125.386 15.02 129.522 16.0986 133.668 17.1027C132.669 17.8174 131.627 18.4883 130.601 19.1764C128.195 18.6682 125.832 18.0451 123.42 17.5588C123.036 18.005 122.658 18.4552 122.287 18.9094C122.61 19.4485 122.932 19.9923 123.259 20.5361C125.832 21.1764 128.415 21.7679 130.978 22.4432C131.606 24.2454 132.545 25.9903 132.917 27.8453C132.337 29.1388 131.541 30.3623 130.86 31.6203C126.724 30.6511 122.518 29.8884 118.34 29.0555C119.194 28.1303 120.064 27.2139 120.94 26.2976C123.411 26.7972 125.886 27.2973 128.335 27.8764C128.518 27.6174 128.883 27.0957 129.065 26.8371C128.776 26.2189 128.475 25.6048 128.19 24.9954C125.741 24.3462 123.276 23.7455 120.789 23.2149C119.903 21.5578 119.006 19.9003 118.141 18.2342C119.167 16.9185 120.203 15.6075 121.159 14.2569ZM58.832 16.9798C59.7449 16.7562 60.6741 16.537 61.5925 16.3134C61.9581 21.6798 61.7111 27.0644 62.0814 32.4355C61.3136 32.5978 60.551 32.7644 59.7989 32.9224C57.7206 30.3618 55.4542 27.906 53.392 25.337C53.4992 28.3713 53.3867 31.4056 53.6013 34.4352C52.6295 35.6235 51.7643 36.8646 50.7815 38.0393C50.6208 31.8306 50.5827 25.6217 50.3359 19.4178C51.0285 19.1985 51.7216 18.9836 52.4197 18.7686C54.6487 21.2153 56.7269 23.7541 58.9348 26.2142C59.0843 23.1316 58.7354 20.0581 58.832 16.9798ZM135.397 17.497C139.726 18.6283 144.017 19.8563 148.239 21.2374C147.176 21.8689 146.112 22.5 145.054 23.1317C142.938 22.5266 140.838 21.8818 138.711 21.3033C138.593 22.3687 138.518 23.4387 138.41 24.504C141.257 25.3282 144.098 26.1743 146.901 27.1039C145.629 27.7885 144.559 28.7791 143.136 29.2219C141.461 28.8319 139.866 28.2352 138.201 27.8144C138.125 28.6869 138.056 29.5551 138.029 30.4276C140.961 31.0984 143.797 32.0238 146.687 32.8088C145.183 33.4836 143.819 35.4046 141.891 34.6149C139.393 33.9311 136.874 33.2996 134.345 32.6902C134.656 27.6258 135.08 22.5617 135.397 17.497ZM44.9861 21.1761C46.0155 20.8423 47.0486 20.5162 48.0853 20.1981C48.0743 25.5081 48.4074 30.8091 48.3429 36.1143C47.3547 37.2854 46.4095 38.4822 45.4052 39.6444C45.346 33.4883 45.2175 27.3279 44.9861 21.1761ZM150.29 21.7896C153.583 22.807 156.767 24.0655 159.909 25.3632C160.392 26.9154 160.886 28.4633 161.391 30.0157C160.699 30.8659 160.027 31.7212 159.35 32.5762C159.957 33.5186 160.698 34.4088 161.192 35.3997C161.241 37.0356 160.999 38.6621 160.972 40.2973C160.027 39.929 159.082 39.5743 158.142 39.2102C158.212 37.7193 158.878 36.062 157.643 34.7553C156.895 33.0146 154.501 32.7211 152.712 31.9972C152.524 33.6549 152.589 35.3165 152.492 36.9738C151.724 38.1533 150.478 39.0653 149.506 40.1353C149.727 34.0188 150.113 27.9064 150.29 21.7896ZM152.965 25.6134C152.954 26.6304 152.863 27.6434 152.831 28.6604C154.362 29.4629 156.134 29.9188 157.793 30.5329C157.987 29.9589 158.599 29.4106 158.325 28.7877C157.965 26.6744 154.855 26.4771 152.965 25.6134ZM39.4545 23.1795C40.464 22.8072 41.4795 22.4388 42.5105 22.1011C42.6448 27.2882 42.6448 32.4754 42.8707 37.6623C41.916 37.9869 40.9636 38.3157 40.0134 38.6488C40.0402 35.4831 40.0832 32.3086 39.6751 29.1563C39.0787 32.1072 37.8383 34.9352 36.9683 37.8336C36.3722 38.0749 35.7778 38.3189 35.1851 38.5657C34.1058 36.5704 33.2037 34.5099 32.0002 32.5629C31.7852 35.6456 32.3921 38.7409 31.9842 41.8144C31.254 43.0377 30.357 44.1956 29.5568 45.388C29.3364 39.5258 29.2343 33.6549 29.1859 27.7924C29.9645 27.1172 31.1411 26.8101 32.1026 26.3191C33.439 28.7131 34.6907 31.1423 35.8723 33.5889C37.2525 30.1646 38.2033 26.6351 39.4545 23.1795ZM163.985 27.0427C164.957 27.4546 165.93 27.8627 166.918 28.2618C166.875 32.9094 166.397 37.5484 166.375 42.1959C165.354 42.9319 164.272 43.6102 163.137 44.226C163.368 38.4998 163.599 32.7646 163.985 27.0427ZM18.1488 32.5498C20.1949 31.2959 22.4187 30.2435 24.599 29.1563C25.4102 30.2831 26.9624 31.2478 26.742 32.6902C26.6456 36.1802 26.9355 39.662 26.8816 43.1522C25.99 43.5598 25.093 43.9588 24.2074 44.3707C24.1749 42.9725 24.0566 41.5781 24.0137 40.1835C22.3009 40.9992 20.5764 41.8017 18.9116 42.6828C19.008 44.0333 19.2283 45.3972 19.0029 46.7429C18.3049 48.1109 17.2951 49.3561 16.3873 50.6321C16.4142 46.1027 16.1727 41.5734 16.1566 37.0529C16.6554 35.5183 17.2734 33.9661 18.1488 32.5498ZM18.7667 35.6236C18.8308 36.838 18.9331 38.048 18.9648 39.267C20.6248 38.3724 22.3379 37.5441 24.0564 36.7283C23.9169 35.4788 23.8902 34.2246 23.9006 32.9705C22.1767 33.8432 20.4476 34.7026 18.7667 35.6236ZM169.614 29.3532C173.347 30.6995 176.961 32.2517 180.581 33.7904C179.378 34.251 178.234 34.9659 176.913 35.1016C175.334 34.5493 173.836 33.8608 172.299 33.2422C172.208 34.1895 172.138 35.1407 172.122 36.097C174.598 36.8989 176.956 37.9256 179.437 38.728C178.105 39.3635 176.757 39.9776 175.382 40.5431C174.271 40.1003 173.137 39.697 172.01 39.2979C171.95 40.0126 171.907 40.7315 171.869 41.4462C174.394 42.3322 176.923 43.2352 179.362 44.2742C178.17 44.761 176.978 45.2434 175.785 45.7343C173.524 44.8792 171.22 44.1121 168.91 43.3537C169.232 38.6881 169.367 34.0188 169.614 29.3532ZM182.837 34.5186C185.737 35.7811 188.627 37.0791 191.403 38.5215C190.458 38.9864 189.528 39.4645 188.605 39.9465C187.09 39.2713 185.624 38.5215 184.045 37.9473C183.83 38.719 183.959 39.5038 184.223 40.2577C186.306 40.9856 188.364 41.7619 190.377 42.608C190.716 44.0195 191.103 45.4274 191.473 46.8394C190.748 48.023 190.029 49.2026 189.293 50.3819C186.446 49.185 183.525 48.115 180.64 46.9884C181.656 46.4311 182.676 45.879 183.723 45.3569C185.372 45.9929 187.011 46.6548 188.653 47.3039C188.97 46.5542 188.745 45.8001 188.519 45.068C186.462 44.2129 184.347 43.4498 182.235 42.6959C181.822 41.4198 181.317 40.1573 181.038 38.8547C181.5 37.3728 182.284 35.9743 182.837 34.5186ZM6.53191 38.7627C8.92186 37.1627 11.6722 35.9351 14.3144 34.6241C13.3528 36.264 13.5028 38.6755 11.2418 39.5655C9.89373 40.2144 8.57757 40.9115 7.25658 41.5955C7.24601 44.1342 7.53086 46.6687 7.35343 49.2073C8.74443 48.4969 10.2266 47.9051 11.5797 47.1463C11.6344 46.4115 11.622 45.6744 11.5425 44.9411C11.156 45.103 10.3822 45.4367 9.98971 45.6033C9.41561 44.8668 8.83557 44.1342 8.26587 43.402C10.1883 42.4287 12.1113 41.4512 14.1096 40.5785C14.0608 42.4856 14.201 44.3974 14.0557 46.3047C13.6745 47.6467 12.9652 48.9093 12.4446 50.2203C10.5218 51.0488 8.65836 51.9611 6.75182 52.816C6.07492 51.8336 4.8827 50.9654 4.93685 49.7596C4.79678 47.4301 4.78591 45.0966 4.90427 42.7664C5.3234 41.4025 5.8658 40.0563 6.53191 38.7627ZM94.1395 39.5784C95.1277 40.2798 95.8796 41.1617 96.6959 41.99C102.325 47.5672 109.274 52.3465 117.33 55.4159C119.844 56.3892 122.508 57.1916 125.305 57.3584C127.529 57.5119 129.527 56.3365 131.761 56.5256C133.63 56.6654 135.499 57.2621 136.923 58.2794C137.679 59.9366 137.808 61.8791 139.446 63.1856C140.671 64.3739 142.712 64.3476 144.425 64.0844C144.833 65.0316 145.397 66.1847 146.804 66.334C148.121 66.3603 149.313 65.7377 150.575 65.47C151.402 66.4129 151.95 67.6493 153.368 68.1184C156.139 69.206 158.315 71.1789 159.577 73.4501C157.954 71.9815 156.289 70.4861 154.033 69.6573C153.969 72.512 154.447 75.8574 151.827 78.1153C151.73 76.3045 151.504 74.4761 150.532 72.8233C148.534 74.1562 146.649 75.8134 144.001 76.2215C144.807 75.3267 145.978 74.573 146.343 73.4591C146.547 72.5997 145.306 72.4504 144.57 72.3188C141.45 71.9246 138.791 73.551 136.327 74.849C135.94 73.9497 135.548 73.0555 135.172 72.1567C133.582 72.5649 131.74 72.8409 130.661 73.985C130 74.9847 131.278 75.8048 132.239 76.2127C133.883 76.9758 135.827 76.4143 137.594 76.7256C138.738 76.9449 139.436 77.7866 140.183 78.462C140.226 77.7739 140.285 77.0895 140.36 76.4059C142.407 78.2562 144.115 80.3389 145.661 82.4876C147.654 81.7155 148.695 80.1064 148.534 78.3173C149.34 79.4968 149.378 80.8518 149.324 82.1672C149.814 81.6793 150.328 81.2084 150.866 80.7555C151.123 82.7286 151.172 84.8467 150.044 86.6614C149.142 88.069 147.455 89.0028 145.656 89.5248C146.043 88.3676 146.875 86.4907 144.92 85.9864C141.515 85.4473 138.19 86.6399 134.818 86.8589C136.724 85.9864 138.926 85.2014 140.065 83.5837C139.984 83.3862 139.812 82.9872 139.732 82.7899C137.932 81.8868 135.806 81.5053 133.856 80.8608C132.718 80.4047 131.654 81.0754 130.618 81.3868C128.669 80.501 126.209 80.3565 124.259 81.3212C119.393 84.0617 111.17 80.1195 112.432 75.2221C113.297 72.5604 116.814 71.6311 119.532 70.5747C117.045 70.1314 114.129 70.5001 112.373 72.1136C110.933 73.3412 110.397 75.0338 110.037 76.6562C100.745 74.4062 90.7561 74.0121 81.239 75.4766C71.9588 76.8841 63.1287 80.6419 56.8451 86.4427C50.4165 92.3052 46.5013 99.7807 44.5518 107.428C42.2048 116.574 43.9665 126.331 49.2617 134.604C50.61 136.898 52.3981 138.98 54.0308 141.142C46.1737 135.902 40.8087 128.571 37.199 120.915C36.0387 122.011 36.1305 123.516 35.8673 124.861C33.3162 121.674 33.7137 117.648 34.4223 114.066C35.9533 107.542 38.6548 101.237 41.9525 95.177C39.2029 96.4839 37.1885 98.5272 34.9277 100.299C34.8364 93.7569 39.4926 88.1356 44.2722 83.2203C47.2046 80.1948 50.6798 77.5681 54.0526 74.8762C51.3137 75.4813 48.7627 76.5071 46.1094 77.3097C51.6356 72.6488 58.8646 69.514 66.309 67.383C73.5646 65.388 81.2023 64.2702 88.8608 64.1077C84.7518 63.3402 80.5628 62.7306 76.3411 62.6211L75.5896 63.0512C75.5733 62.8053 75.5355 62.5117 75.9167 62.4504C83.7043 60.8761 91.8895 60.4991 99.3819 58.0131C101.208 57.4215 102.899 56.5748 104.425 55.5665C107.631 57.3379 110.977 59.5042 115.048 59.4778C108.711 55.3257 102.341 50.9978 97.8353 45.4033C96.3144 43.5992 94.8593 41.7095 94.1395 39.5784ZM129.618 60.7302C131.273 62.541 133.308 64.6413 136.445 64.3167C136.031 63.4004 135.88 62.2825 134.871 61.6509C133.131 61.3001 131.332 61.1595 129.618 60.7302Z" fill="white"/>
<path d="M87.4958 47.6592C92.6943 49.9132 97.4368 52.8463 102.829 54.837C101.524 55.6964 99.8699 57.2619 98.0598 56.2753C93.8546 54.052 90.5892 50.8294 87.4958 47.6592ZM25.8881 67.0789C30.034 65.8556 35.1364 68.5785 35.2601 72.2006C34.8357 72.2356 33.9871 72.3012 33.5629 72.3363C33.3589 75.0282 34.8516 77.5979 36.5919 79.8077C36.7907 77.3742 36.2646 74.787 37.7626 72.5512C38.767 72.5906 39.718 72.8231 40.5822 73.2524C41.748 72.6693 41.4902 71.3892 40.7975 70.5999C40.0079 69.7319 39.014 69.0125 38.2033 68.1664C40.2815 69.1967 42.4033 70.3632 43.7406 72.0642C44.5302 73.2088 44.7237 74.9276 43.4558 75.9009C42.6177 76.6507 40.8188 75.8658 40.293 76.9492C39.342 78.5013 39.6854 80.3558 40.5019 81.8994C42.548 81.566 43.9876 80.2726 45.8514 79.6235C42.2208 82.6795 38.767 85.9636 36.7315 89.936C36.6993 88.7524 37.3976 87.3359 36.3828 86.3185C34.4384 84.8589 31.5168 84.9685 29.3957 83.758C28.1548 83.0215 27.4565 81.873 26.4307 80.9782C25.5874 80.2897 23.9332 80.5749 23.3694 79.6494C23.1119 78.1105 23.2998 76.2513 21.7209 75.1245C20.0454 74.0196 17.7251 74.2344 15.7109 74.0854C19.0298 72.6384 23.407 73.3968 25.8723 75.6728C27.0376 76.7382 26.893 78.4482 28.3641 79.3338C29.8899 80.202 31.4953 81.0792 33.343 81.4206C33.7778 79.2856 31.3343 78.0008 30.545 76.1723C29.6154 74.2871 29.1698 71.9936 30.4752 70.1524C30.749 69.5516 31.5923 68.7844 30.6792 68.2758C29.3574 67.355 27.483 67.4125 25.8881 67.0789ZM74.6594 79.5227C75.1951 79.3545 75.7419 79.2111 76.2973 79.093C72.3286 82.0613 69.4771 85.8103 66.3241 89.3313C65.2554 90.6205 63.8591 91.9928 64.2129 93.6721C64.2507 94.1893 64.509 95.1455 65.4005 94.764C67.3605 93.9264 68.4561 92.269 69.8418 90.9316C70.7868 93.4268 73.6712 94.904 76.5338 95.724C81.4208 97.206 86.7112 96.6801 91.7544 96.1672C101.411 95.0621 111.314 93.0713 119.322 88.3184C121.53 87.1127 123.033 85.2753 125.112 83.96C124.586 85.9595 122.803 87.4985 121.154 88.9454C115.472 93.4706 107.942 96.0838 100.369 97.7411C93.0974 99.2935 85.5784 99.9554 78.0806 100.153C76.335 100.298 74.3752 100.367 72.9622 101.324C72.0066 101.937 72.8926 102.915 73.6283 103.34C76.2652 104.888 79.2513 106.033 82.3342 106.866C90.0037 109.027 98.3603 108.076 105.982 106.274C111.224 105.059 116.084 103.025 120.945 101.069C115.043 105.533 107.287 108.063 99.4618 109.251C88.8489 110.72 77.8387 109.474 67.7902 106.458C66.7006 106.182 65.0188 105.94 64.4066 106.967C63.6011 108.558 65.3089 109.939 66.0719 111.29C69.0846 116.122 73.048 120.831 78.87 123.646C81.1102 124.79 83.6503 125.426 86.1748 126.001C81.9478 126.115 77.9895 124.593 74.397 122.94C67.1408 119.472 62.3717 113.447 59.3797 107.177C59.9278 115.477 66.3352 122.642 73.7253 127.969C73.7628 128.912 72.377 128.925 71.5608 129.157C68.1827 129.872 64.1601 129.833 61.5392 131.946C59.2457 135.125 59.2351 139.102 56.7269 142.211C52.1998 135.778 49.337 128.601 47.9997 121.274C46.3291 111.763 48.6922 101.779 54.9655 93.6196C59.6591 87.4809 66.6464 82.5832 74.6594 79.5227Z" fill="white"/>
<path d="M121.331 95.2375C123.936 94.062 126.154 92.4355 128.571 91.0369C127.959 92.3436 126.525 93.1899 125.316 94.1147C114.586 101.999 99.7409 105.199 85.5463 104.963C82.9144 104.809 79.9123 104.779 77.8178 103.283C77.3561 102.161 79.2358 102.025 80.143 102.073C94.2196 102.595 109 101.196 121.331 95.2375ZM116.116 107.243C121.084 106.896 126.278 107.519 130.762 109.361C135.08 111.127 138.367 114.372 139.849 118.117C137.175 116.218 133.141 115.512 129.747 116.244C129.586 117.13 129.919 117.972 130.45 118.743C125.853 119.191 121.078 117.762 118.307 114.67C120.321 115.415 122.426 116.428 124.736 116.06C126.562 115.757 128.527 115.117 129.531 113.758C130.198 112.719 128.919 111.807 128.012 111.241C124.425 109.255 120.193 108.308 116.116 107.243ZM68.1182 108.374C69.0632 108.466 70.1967 108.413 70.8357 109.119C75.041 113.509 81.7651 115.679 88.3016 116.635C93.2858 117.468 98.3878 117.559 103.458 117.441C95.1166 119.182 85.9813 118.849 78.0223 116.06C74.4557 114.81 71.1205 112.938 68.8327 110.347C68.2901 109.786 68.2956 109.036 68.1182 108.374Z" fill="white"/>
<path d="M115.864 117.555C114.338 115.543 113.818 112.978 114.553 110.689C115.053 113.311 116.208 116.025 118.84 117.731C122.089 119.897 126.535 120.353 130.596 120.09C136.332 119.629 142.089 118.77 147.873 119.16C150.564 119.384 152.82 120.879 154.082 122.778C155.215 124.519 156.37 126.303 156.95 128.228C157.422 130.556 154.99 132.253 154.393 134.388C153.276 138.014 153.287 141.873 151.482 145.354C150.429 147.406 148.077 148.722 146.665 150.581C143.985 154.036 142.711 158.048 141.686 162.007C141.197 163.862 140.268 165.817 138.184 166.848C134.441 168.734 129.843 168.861 125.95 170.47C122.185 171.89 119.221 174.302 115.934 176.297C113.355 177.862 109.88 177.897 106.927 177.095C104.521 176.428 101.932 176.029 99.429 176.591C97.1731 176.779 95.0627 178.059 92.7637 177.573C89.837 176.845 89.574 173.771 86.9901 172.693C84.3637 171.614 81.3618 171.601 78.5259 171.18C77.21 171.004 75.8621 170.443 75.2715 169.422C74.498 167.944 74.579 166.238 73.6067 164.827C71.2652 161.836 66.2167 161.227 64.0951 158.07C63.0424 156.579 63.3326 154.795 64.0361 153.251C64.7828 151.577 64.9976 149.476 63.4719 148.038C61.7694 146.512 59.0788 146.24 56.6939 146.078C59.245 143.219 60.6952 139.834 61.592 136.401C62.0809 134.367 63.5146 132.297 66.1196 131.714C69.6752 130.902 73.9124 129.718 77.3229 131.459C81.2863 134.011 80.6207 139.413 77.2531 142.132C74.8845 143.653 71.2971 144.153 68.5739 142.987C66.9143 142.255 66.7318 140.571 66.9951 139.212C68.1605 139.86 69.0196 140.948 70.4965 141.163C71.6676 140.926 73.3859 140.391 73.3375 139.216C72.5965 137.519 70.0401 136.331 67.9298 137.138C65.5876 138.05 63.1816 139.637 62.8379 141.869C62.8974 144.372 66.1249 145.732 68.8532 145.797C73.3375 145.815 77.2423 143.596 80.3842 141.189C79.7771 148.248 80.298 155.698 84.38 162.086C86.4046 165.34 90.2929 167.615 94.6163 168.426C103.306 170.101 112.41 168.891 120.756 166.585C125.772 165.234 130.643 163.327 134.688 160.512C136.691 159.025 138.194 157.162 139.666 155.321C143.581 150.23 146.648 144.722 149.091 139.057C150.729 134.966 151.932 130.323 149.79 126.206C148.329 123.374 144.446 122.181 140.966 121.83C136.577 121.247 132.222 122.672 127.84 122.115C126.97 123.334 127.018 125.123 128.677 125.877C131.588 127.184 135.058 126.851 138.253 127.009C132.314 128.947 125.321 129.718 119.333 127.486C114.021 125.636 109.987 121.756 108.194 117.314C110.697 120.278 113.306 123.562 117.624 124.895C119.671 125.439 122.265 125.847 124.123 124.715C125.32 123.72 123.983 122.449 123.376 121.51C120.429 120.932 117.513 119.704 115.864 117.555ZM155.919 123.422C156.816 122.883 157.901 122.615 158.926 122.278C158.502 123.089 158.105 124.093 156.929 124.339C156.139 124.4 155.801 124.093 155.919 123.422ZM155.424 134.84C157.159 134.292 159.05 134.735 160.859 134.537C159.538 135.664 157.503 136.83 155.543 136.076C155.501 135.664 155.461 135.252 155.424 134.84Z" fill="white"/>
<path d="M88.2204 139.22C90.6751 137.668 93.9295 137.322 96.9477 137.212C94.703 137.83 91.9908 138.278 90.9813 140.281C91.8671 141.263 94.1281 140.636 94.5309 141.89C94.5901 144.534 91.9798 146.433 91.0079 148.801C93.6667 147.305 96.6794 145.924 98.3766 143.596C98.8388 142.877 97.4692 142.649 97.0769 142.224C98.4734 140.378 101.293 139.72 103.812 139.768C105.735 139.72 107.824 140.237 108.974 141.579C107.109 141.232 105.069 140.014 103.184 140.921C102.716 141.982 103.006 143.184 102.459 144.245C101.326 146.823 98.4091 148.555 95.3744 149.506C94.2839 149.866 92.7967 150.659 93.1943 151.773C95.0949 151.865 97.0287 152.045 98.9249 151.804C100.955 151.545 101.911 149.717 103.898 149.388C107.497 148.59 111.83 149.813 113.694 152.527C111.777 151.769 109.865 150.457 107.593 150.817C105.348 151.216 104.419 153.102 103.076 154.4C101.862 154.658 100.676 154.053 99.4616 154.189C97.8342 154.492 96.4005 155.298 94.7244 155.435C91.8026 155.693 89.0585 154.128 86.1312 154.681C84.563 155.079 84.6594 156.636 84.5251 157.719C82.7744 153.453 82.0282 148.879 82.5274 144.394C83.7952 145.442 83.7679 146.937 84.1551 148.279C84.3858 149.134 85.6854 149.156 86.3947 148.682C88.2686 147.547 89.4719 145.644 89.311 143.719C86.9426 143.153 86.3623 140.479 88.2204 139.22ZM57.9887 148.774C59.514 147.752 62.484 148.502 62.5701 150.234C62.7688 151.414 62.7043 152.949 61.1628 153.514C57.8384 154.992 53.4398 155.637 51.6836 158.715C52.0488 154.908 53.9716 150.954 57.9887 148.774ZM145.699 153.378C146.37 152.264 148.142 152.501 149.233 153.023C150.618 153.659 152.095 154.145 153.722 154.145C151.703 155.167 149.19 155.987 146.816 155.382C145.8 155.15 144.958 154.167 145.699 153.378ZM70.207 164.414C72.0222 163.897 74.0205 165.252 73.5638 166.822C73.623 168.023 72.3768 168.734 71.1364 169.084C68.3544 170.036 65.0245 170.698 63.4779 173.039C63.7249 169.488 66.2546 166.002 70.207 164.414ZM124.441 173.824C123.705 172.504 125.129 170.978 126.868 171.403C128.699 171.741 128.577 173.504 128.813 174.696C128.952 176.078 129.677 177.34 130.552 178.502C127.851 177.731 125.628 175.92 124.441 173.824ZM82.0445 174.052C82.9844 173.096 84.5852 172.67 86.0508 172.952C87.8612 173.754 88.2475 176.306 86.3841 177.235C83.8064 178.871 80.0572 179.848 79.1711 182.72C78.9131 179.695 79.66 176.455 82.0445 174.052ZM101.314 177.643C103.372 176.521 106.25 178.682 104.838 180.423C102.969 182.414 99.7678 183.589 99 186.224C98.3876 183.321 98.6777 179.866 101.314 177.643Z" fill="white"/>
<path d="M95.6593 0.177586C97.3723 -0.0808419 99.1124 0.0287835 100.842 0.112171L100.863 0.431881C101.508 0.480584 102.163 0.537373 102.813 0.603149C106.373 1.41438 109.993 2.0502 113.57 2.82171C116.051 3.47066 118.576 3.98788 121.068 4.61058C121.616 4.75543 122.164 4.89579 122.717 5.03165C123.246 5.1773 123.778 5.31761 124.312 5.45254C126.476 5.99204 128.598 6.6498 130.756 7.20637C131.272 7.36434 131.793 7.52195 132.314 7.67992C132.862 7.83339 133.41 7.98291 133.962 8.13603C134.822 8.46077 135.708 8.74562 136.637 8.93414C137.518 9.27146 138.426 9.58273 139.355 9.84619C139.881 9.99517 140.413 10.1486 140.95 10.3023C142.159 10.8062 143.431 11.2052 144.71 11.5912C145.568 11.9467 146.46 12.2578 147.4 12.4815C148.931 13.1741 150.585 13.6655 152.175 14.2662C152.491 14.3583 153.125 14.5468 153.442 14.6388L153.56 14.8712C155.891 15.5066 157.975 16.5943 160.263 17.3047C160.532 17.4186 161.069 17.651 161.337 17.7649C161.606 17.8745 162.143 18.0938 162.406 18.2034C162.77 18.3486 163.133 18.4947 163.496 18.6416C164.2 18.9485 164.93 19.2163 165.677 19.4573C166.359 19.7905 167.062 20.0976 167.782 20.3911C168.051 20.505 168.588 20.7286 168.856 20.8429C169.125 20.9392 169.667 21.1367 169.936 21.233C172.218 22.3201 174.581 23.2942 176.923 24.2982C178.126 24.9427 179.404 25.4908 180.682 26.0298C182.456 26.9412 184.256 27.8184 186.08 28.6606C187.498 29.406 188.889 30.1781 190.361 30.8529C192.1 31.9889 194.217 32.6993 195.892 33.9005C196.134 39.9294 195.909 45.9715 195.774 52.0006C195.356 55.4599 195.044 58.9325 194.786 62.4008C194.534 62.3003 194.284 62.198 194.034 62.0938C177.304 54.9912 159.876 48.9882 142.04 43.9941C129.929 40.6047 117.426 38.3116 104.923 36.1412C102.593 35.7857 100.294 35.2379 97.9202 35.1504C95.326 35.2291 92.78 35.6985 90.2454 36.1104C78.87 38.1184 67.5382 40.3326 56.437 43.1872C45.0458 46.0943 33.9391 49.6851 23.004 53.57C15.7699 56.3453 8.41688 58.9499 1.49425 62.2254C1.45825 61.7436 1.33319 61.2691 1.12333 60.8179C0.95713 58.4852 1.0804 56.1128 0.586432 53.811C0.280672 51.334 0.73722 48.7425 0.033026 46.3353C-0.00417587 43.2264 -0.0204655 40.1177 0.0440325 37.0135C0.591495 36.0443 0.280672 34.9484 0.339226 33.9176C3.29314 32.3262 6.21514 30.6817 9.1957 29.1122C14.1154 26.6478 19.1636 24.3548 24.2442 22.1143C25.6889 21.5621 27.0854 20.9304 28.5138 20.3472C28.7877 20.2376 29.3305 20.0183 29.5993 19.9087C31.3337 19.0977 33.1704 18.4446 34.959 17.7211C35.9256 17.3221 36.8816 16.8922 37.9239 16.6293L38.0419 16.2609C38.2785 16.2828 38.7509 16.3313 38.9821 16.3531L39.0998 15.9496C41.1517 15.5374 42.8861 14.4677 44.9166 13.9985L45.0189 13.7526C46.7584 13.3626 48.386 12.6918 49.9974 12.0428C50.9373 11.8279 51.8504 11.5384 52.6988 11.1441C53.625 10.9239 54.5227 10.6302 55.3789 10.2673C56.2972 10.0388 57.1996 9.7628 58.0642 9.41649C60.0353 8.83763 62.0277 8.29849 63.9611 7.64092C64.4943 7.50005 65.026 7.35531 65.5561 7.20673C68.2206 6.42605 70.9215 5.72894 73.6179 5.0144C74.1642 4.8869 74.7084 4.75384 75.2506 4.61526C77.7425 3.99273 80.2722 3.45808 82.7639 2.83537C83.4782 2.70814 84.2088 2.5897 84.9068 2.40118C86.3352 2.0901 87.7909 1.84892 89.2196 1.52418C89.9445 1.41024 90.6588 1.27402 91.3678 1.08999C92.0712 0.954309 92.7855 0.823118 93.4947 0.669104C94.2091 0.523895 94.9555 0.392524 95.6593 0.177586ZM87.3291 7.1627C85.2295 8.99991 82.8559 10.6398 80.8842 12.56C80.8789 16.8266 80.6748 21.1369 80.9812 25.381C83.065 27.1088 85.2936 28.7264 87.3346 30.498C93.9079 30.5021 100.487 30.507 107.061 30.498C107.808 30.6337 108.248 30.0683 108.737 29.7304C110.52 28.2352 112.346 26.7707 114.145 25.2845C114.134 22.3467 114.14 19.4091 114.14 16.471C107.271 16.4756 100.402 16.4668 93.5377 16.4756C95.4975 18.0848 97.4689 19.6891 99.44 21.2943H105.412V25.2405H89.5687V12.4154C96.0027 12.4067 102.442 12.433 108.876 12.4026C111.014 10.6966 112.995 8.86818 115.122 7.15389C105.858 7.15839 96.5933 7.14077 87.3291 7.1627ZM66.3831 15.3882C65.6153 16.8047 64.7346 18.1898 64.1277 19.6589C63.8807 22.5703 64.2241 25.4948 64.219 28.4108C64.7452 29.6124 65.9431 30.5462 66.7433 31.6377C69.2833 30.989 71.8344 30.3621 74.4018 29.7876C75.132 28.402 76.0503 27.082 76.6253 25.6486C76.797 23.5659 76.6363 21.4785 76.5124 19.3958C73.9345 19.9837 71.3622 20.5839 68.816 21.2375C69.5303 22.1932 70.288 23.1358 71.0503 24.0743C71.8076 23.9167 72.565 23.7587 73.3278 23.6011C73.3168 24.4821 73.3227 25.3679 73.3227 26.2537C71.3834 26.705 69.4557 27.17 67.5382 27.6653C67.5329 24.7319 67.366 21.8029 67.3772 18.87C69.7615 18.2909 72.1353 17.6946 74.5152 17.0985C75.2993 15.6646 76.0939 14.2352 76.8838 12.8059C73.3434 13.5555 69.8689 14.4894 66.3831 15.3882ZM121.159 14.2569C120.203 15.6074 119.167 16.9186 118.141 18.234C119.006 19.9001 119.903 21.5576 120.789 23.2147C123.276 23.7452 125.741 24.346 128.189 24.9952C128.474 25.6046 128.775 26.2185 129.065 26.8369C128.882 27.0953 128.517 27.617 128.335 27.8761C125.885 27.2971 123.41 26.797 120.939 26.2974C120.064 27.2137 119.194 28.1299 118.34 29.0552C122.518 29.8886 126.723 30.6511 130.859 31.6201C131.541 30.3621 132.336 29.1385 132.916 27.8451C132.545 25.9902 131.606 24.2454 130.977 22.443C128.415 21.7677 125.832 21.1761 123.259 20.5359C122.931 19.9923 122.609 19.4483 122.287 18.9091C122.658 18.4553 123.036 18.005 123.42 17.5586C125.832 18.0451 128.194 18.668 130.6 19.1762C131.626 18.4881 132.669 17.817 133.667 17.1025C129.522 16.0986 125.386 15.0201 121.159 14.2569ZM58.832 16.9797C58.7356 20.0579 59.0843 23.1315 58.9344 26.2142C56.7267 23.7542 54.6483 21.2156 52.4192 18.7686C51.7234 18.9825 51.0287 19.1989 50.3353 19.4177C50.5825 25.6216 50.6201 31.8306 50.781 38.0393C51.7639 36.8643 52.6288 35.6236 53.6007 34.4352C53.386 31.4055 53.499 28.3713 53.3915 25.337C55.4535 27.9062 57.7202 30.3618 59.7984 32.9223C60.5506 32.7644 61.3131 32.5978 62.0809 32.4355C61.7107 27.0642 61.9577 21.6798 61.592 16.3134C60.6743 16.5369 59.7451 16.7565 58.832 16.9797ZM135.397 17.497C135.08 22.5618 134.656 27.6258 134.345 32.6901C136.874 33.2995 139.393 33.9311 141.89 34.6149C143.819 35.4047 145.183 33.4836 146.686 32.8087C143.797 32.0239 140.961 31.0986 138.029 30.4275C138.056 29.555 138.125 28.6868 138.201 27.8143C139.865 28.2352 141.461 28.8317 143.136 29.2218C144.56 28.779 145.628 27.7883 146.901 27.1039C144.097 26.1743 141.256 25.3282 138.41 24.504C138.517 23.4387 138.592 22.3686 138.711 21.3033C140.838 21.8818 142.937 22.5266 145.053 23.1317C146.112 22.5002 147.175 21.869 148.238 21.2373C144.017 19.8566 139.726 18.6284 135.397 17.497ZM44.9861 21.1761C45.2175 27.3277 45.346 33.4882 45.4052 39.6443C46.4097 38.4821 47.3545 37.2854 48.3429 36.1142C48.4074 30.8089 48.0743 25.5077 48.0853 20.1981C47.0486 20.5162 46.0154 20.8422 44.9861 21.1761ZM150.29 21.7896C150.113 27.9063 149.726 34.0188 149.506 40.1353C150.478 39.0653 151.724 38.1533 152.492 36.9738C152.589 35.3163 152.524 33.6545 152.712 31.9972C154.501 32.7209 156.896 33.0145 157.643 34.7552C158.877 36.0619 158.212 37.7192 158.142 39.2102C159.082 39.5741 160.027 39.929 160.972 40.2972C160.999 38.662 161.241 37.0354 161.192 35.3997C160.698 34.4087 159.957 33.5186 159.35 32.5762C160.027 31.7211 160.698 30.8659 161.391 30.0156C160.887 28.4671 160.393 26.9162 159.909 25.3632C156.767 24.0655 153.583 22.8071 150.29 21.7896ZM39.4545 23.1795C38.203 26.6352 37.2527 30.1646 35.8725 33.5889C34.6907 31.1423 33.439 28.7131 32.1024 26.3191C31.1408 26.8101 29.9643 27.117 29.1857 27.7924C29.2339 33.6548 29.3362 39.5257 29.5566 45.388C30.357 44.1956 31.2538 43.0377 31.9839 41.8144C32.3921 38.7407 31.7852 35.6455 32 32.5629C33.2035 34.5099 34.1053 36.5705 35.1848 38.5657C35.7775 38.3188 36.372 38.0748 36.9681 37.8335C37.8383 34.9351 39.0785 32.1071 39.6748 29.1562C40.0829 32.3086 40.04 35.4832 40.0132 38.6487C40.9639 38.3155 41.9144 37.9867 42.8704 37.6623C42.645 32.4754 42.645 27.2879 42.5103 22.101C41.4795 22.4387 40.464 22.8071 39.4545 23.1795ZM163.985 27.0426C163.599 32.7645 163.368 38.4997 163.137 44.226C164.272 43.61 165.354 42.9318 166.376 42.1959C166.397 37.5483 166.875 32.9094 166.918 28.2618C165.93 27.8627 164.957 27.4545 163.985 27.0426ZM18.1488 32.5498C17.2733 33.9663 16.6557 35.5185 16.1564 37.053C16.1727 41.5734 16.414 46.1027 16.3871 50.6322C17.2949 49.3562 18.3047 48.1112 19.0027 46.743C19.2283 45.3972 19.008 44.0335 18.9113 42.6829C20.5762 41.8018 22.3004 40.9992 24.0135 40.1837C24.0564 41.5782 24.1744 42.9726 24.2072 44.3708C25.0928 43.9589 25.99 43.5598 26.8813 43.1524C26.9353 39.6621 26.6454 36.1804 26.7418 32.6903C26.9619 31.2479 25.4096 30.2829 24.5988 29.1564C22.4187 30.2435 20.1947 31.2959 18.1488 32.5498ZM169.614 29.3532C169.367 34.0188 169.233 38.6879 168.911 43.3536C171.22 44.112 173.524 44.8792 175.785 45.7343C176.978 45.2433 178.17 44.761 179.362 44.2741C176.924 43.235 174.394 42.3318 171.87 41.4461C171.908 40.7312 171.951 40.0124 172.01 39.2979C173.138 39.697 174.271 40.1003 175.382 40.5431C176.758 39.9777 178.105 39.3636 179.437 38.728C176.956 37.9256 174.598 36.8992 172.123 36.097C172.138 35.1409 172.208 34.1895 172.3 33.2422C173.836 33.8604 175.334 34.5491 176.913 35.1015C178.234 34.9659 179.378 34.2509 180.581 33.7903C176.961 32.2516 173.347 30.6994 169.614 29.3532ZM182.837 34.5185C182.284 35.9744 181.5 37.3728 181.038 38.8549C181.317 40.1574 181.822 41.4199 182.235 42.6961C184.346 43.45 186.462 44.213 188.519 45.0681C188.744 45.8003 188.97 46.5545 188.653 47.3041C187.01 46.655 185.372 45.9931 183.723 45.3571C182.676 45.8791 181.655 46.4314 180.64 46.9885C183.524 48.1151 186.446 49.1852 189.292 50.3821C190.029 49.2028 190.748 48.0231 191.473 46.8395C191.102 45.4275 190.716 44.02 190.377 42.6082C188.363 41.7621 186.306 40.9857 184.222 40.2579C183.959 39.5038 183.83 38.719 184.045 37.9477C185.624 38.5217 187.09 39.2714 188.605 39.9466C189.528 39.4644 190.457 38.9866 191.403 38.5217C188.627 37.0793 185.737 35.7812 182.837 34.5185ZM6.53191 38.7627C5.86602 40.0562 5.32362 41.4025 4.90427 42.7663C4.78613 45.0966 4.797 47.43 4.93685 49.7595C4.8827 50.9654 6.07492 51.8338 6.75182 52.8159C8.65836 51.9608 10.5218 51.0488 12.4446 50.2203C12.9654 48.9093 13.6745 47.6466 14.0557 46.3047C14.201 44.3976 14.0608 42.4858 14.1096 40.5785C12.1113 41.4508 10.1885 42.4286 8.26587 43.402C8.83534 44.1341 9.41561 44.8668 9.9897 45.6033C10.382 45.4367 11.1557 45.1031 11.5425 44.941C11.6219 45.6744 11.6343 46.4115 11.5797 47.1463C10.2266 47.9051 8.74443 48.4969 7.35343 49.2073C7.53086 46.6684 7.24601 44.1341 7.25658 41.5955C8.57757 40.9115 9.89351 40.2144 11.2418 39.5654C13.5028 38.6757 13.3528 36.2641 14.3144 34.624C11.6719 35.9349 8.92185 37.1627 6.53191 38.7627Z" fill="black"/>
<path d="M152.965 25.6134C154.856 26.4773 157.965 26.6744 158.325 28.7877C158.599 29.4108 157.987 29.9589 157.793 30.5329C156.134 29.9188 154.362 29.4629 152.831 28.6604C152.863 27.6435 152.954 26.6304 152.965 25.6134ZM18.7667 35.6236C20.4478 34.7026 22.1769 33.8432 23.9008 32.9705C23.8902 34.2247 23.9171 35.4788 24.0566 36.7283C22.3379 37.5441 20.625 38.3724 18.965 39.267C18.9329 38.048 18.8305 36.838 18.7667 35.6236Z" fill="black"/>
<path d="M90.2458 36.1099C92.7808 35.698 95.3266 35.2288 97.9206 35.1499C100.294 35.2372 102.593 35.7854 104.924 36.1407C117.427 38.3112 129.93 40.6042 142.041 43.9936C159.877 48.9877 177.305 54.9905 194.035 62.0933C194.615 62.5408 194.711 63.2117 194.765 63.8301C193.975 65.2023 194.319 66.7545 194.136 68.219C193.535 69.3327 193.734 70.5738 193.594 71.7572C193.009 73.9059 192.713 76.1243 192.515 78.3256C192.064 79.163 192.058 80.0837 191.962 80.9825C191.215 84.3327 190.453 87.6867 189.797 91.0497C189.19 93.0887 188.659 95.1407 188.18 97.2015C187.111 100.714 186.08 104.235 184.963 107.738C184.534 108.746 184.201 109.777 183.889 110.807C183.164 112.706 182.418 114.604 181.719 116.507C181.548 116.946 181.375 117.389 181.22 117.831C180.291 119.861 179.436 121.914 178.54 123.953C178.341 124.383 178.146 124.814 177.954 125.246C177.557 125.969 177.213 126.715 176.907 127.469C176.477 128.173 176.117 128.903 175.828 129.653C175.081 130.959 174.389 132.292 173.712 133.625C166.236 147.016 156.826 159.854 144.356 170.553C134.629 179.085 123.061 186.215 110.316 191.477C110.042 191.582 109.499 191.796 109.231 191.906C108.962 192.016 108.436 192.244 108.167 192.358C106.175 193.047 104.252 193.858 102.26 194.541C101.348 194.801 100.448 195.089 99.5632 195.405C99.002 195.593 98.4435 195.786 97.8876 195.984C96.4321 195.502 94.9879 195.002 93.5161 194.564C76.9313 188.868 61.9629 180.09 49.9916 169.128C40.5283 160.591 32.8431 150.836 26.3871 140.619C26.0639 140.018 25.7055 139.43 25.3131 138.856L24.7976 137.979L24.2389 137.102C22.7731 134.485 21.2634 131.876 19.9534 129.201C19.6318 128.463 19.2735 127.736 18.8794 127.022C18.1109 125.43 17.4937 123.795 16.6986 122.216C14.7438 117.577 12.9821 112.89 11.3604 108.172C10.6565 105.953 9.93687 103.739 9.23883 101.516C8.66408 99.6481 8.24473 97.7454 7.60613 95.8904C6.66112 92.2336 5.89815 88.5375 4.89414 84.9026C4.81335 84.0166 4.74885 83.1268 4.36759 82.2892C4.07746 80.3774 3.91126 78.4176 3.26144 76.5673C3.14873 75.528 3.29864 74.4362 2.73489 73.4672C2.6114 72.165 2.73489 70.8321 2.19227 69.5821C2.01506 68.2582 2.2517 66.8769 1.64987 65.6056C1.58031 64.4786 1.52087 63.3517 1.49402 62.225C8.41665 58.9492 15.7696 56.345 23.0038 53.5697C33.9389 49.6848 45.0455 46.0937 56.4368 43.1869C67.5379 40.3325 78.87 38.1182 90.2458 36.1099ZM94.1395 39.5784C94.8593 41.7095 96.3144 43.5991 97.8346 45.4013C102.34 50.996 108.71 55.3237 115.048 59.4758C110.977 59.5022 107.631 57.3361 104.424 55.5645C102.899 56.5729 101.208 57.4195 99.3812 58.0111C91.8889 60.4971 83.7036 60.8745 75.9161 62.4484C75.535 62.5097 75.5724 62.8033 75.589 63.0492L76.3405 62.6191C80.5621 62.7288 84.7512 63.3384 88.8601 64.1057C81.2014 64.268 73.564 65.386 66.3083 67.381C58.8644 69.5121 51.6353 72.6468 46.1088 77.3077C48.762 76.5053 51.3133 75.4793 54.0519 74.8742C50.6795 77.5661 47.2043 80.1928 44.2716 83.2183C39.4919 88.1336 34.8357 93.7547 34.9271 100.297C37.188 98.5256 39.2022 96.4821 41.9518 95.175C38.6541 101.235 35.9529 107.54 34.4216 114.064C33.7131 117.647 33.3157 121.672 35.8666 124.859C36.1299 123.514 36.0381 122.009 37.1984 120.913C40.8078 128.569 46.173 135.9 54.0301 141.14C52.3974 138.978 50.6093 136.896 49.261 134.602C43.9658 126.329 42.2041 116.572 44.5511 107.426C46.5004 99.7787 50.416 92.3032 56.8445 86.4407C63.1283 80.6401 71.9581 76.8821 81.2383 75.4746C90.7554 74.0105 100.745 74.4046 110.036 76.6542C110.396 75.0318 110.933 73.3392 112.373 72.1116C114.129 70.4981 117.045 70.1296 119.531 70.5727C116.814 71.6291 113.296 72.5587 112.431 75.2201C111.17 80.1177 119.392 84.0599 124.258 81.3193C126.208 80.3546 128.667 80.4992 130.617 81.3849C131.653 81.0736 132.717 80.4027 133.856 80.8588C135.805 81.5033 137.932 81.8848 139.731 82.7879C139.812 82.9852 139.983 83.3843 140.064 83.5817C138.925 85.1993 136.724 85.9843 134.817 86.8569C138.189 86.6377 141.514 85.4455 144.919 85.9844C146.874 86.4889 146.042 88.3656 145.655 89.5228C147.454 89.0011 149.141 88.067 150.043 86.6594C151.171 84.8443 151.123 82.7266 150.865 80.7535C150.328 81.2065 149.813 81.6775 149.324 82.1652C149.377 80.8498 149.339 79.495 148.534 78.3153C148.695 80.1044 147.653 81.7134 145.661 82.4856C144.114 80.3369 142.406 78.2541 140.36 76.4039C140.284 77.0879 140.225 77.7719 140.182 78.46C139.436 77.7846 138.737 76.9429 137.594 76.7236C135.827 76.4125 133.883 76.9736 132.239 76.2107C131.277 75.8029 129.999 74.9831 130.66 73.983C131.739 72.8389 133.581 72.5627 135.171 72.1548C135.547 73.0535 135.939 73.9479 136.326 74.8469C138.791 73.549 141.449 71.9226 144.57 72.3169C145.305 72.448 146.546 72.5977 146.343 73.4571C145.977 74.5708 144.806 75.3249 144.001 76.2195C146.648 75.8114 148.533 74.1542 150.532 72.8213C151.503 74.4741 151.729 76.3025 151.826 78.1133C154.447 75.8556 153.968 72.5099 154.033 69.6553C156.288 70.4843 157.953 71.9797 159.576 73.4482C158.314 71.1768 156.138 69.2039 153.367 68.1164C151.949 67.6475 151.402 66.4109 150.574 65.468C149.312 65.7356 148.12 66.3583 146.804 66.332C145.396 66.1827 144.833 65.0295 144.425 64.0824C142.711 64.3457 140.67 64.3719 139.446 63.1836C137.808 61.8769 137.679 59.9344 136.922 58.2774C135.498 57.2601 133.629 56.6636 131.76 56.5234C129.526 56.3346 127.528 57.5101 125.305 57.3564C122.506 57.1896 119.842 56.3872 117.329 55.4139C109.273 52.3446 102.324 47.5652 96.6952 41.988C95.8796 41.1613 95.1274 40.2798 94.1395 39.5784ZM87.4958 47.6592C90.5892 50.8297 93.8546 54.052 98.06 56.2752C99.8699 57.2617 101.524 55.6962 102.829 54.837C97.437 52.8463 92.6945 49.9132 87.4958 47.6592ZM25.8881 67.0789C27.4832 67.4123 29.3576 67.3551 30.6788 68.2762C31.5919 68.7849 30.7486 69.5523 30.4747 70.1527C29.1694 71.9939 29.6151 74.2874 30.5445 76.1726C31.3339 78.001 33.7775 79.286 33.3426 81.421C31.4946 81.0795 29.8892 80.2023 28.3637 79.3341C26.8921 78.4485 27.0372 76.7385 25.8718 75.6732C23.4066 73.3973 19.0293 72.6389 15.7104 74.0858C17.7244 74.2346 20.0448 74.0198 21.7204 75.1249C23.2992 76.2517 23.1114 78.1106 23.3689 79.6497C23.9331 80.5749 25.587 80.29 26.4303 80.9785C27.4563 81.8733 28.1543 83.0219 29.3952 83.7583C31.5164 84.9689 34.4382 84.8592 36.3823 86.3189C37.3971 87.3362 36.6991 88.7528 36.731 89.9363C38.7666 85.964 42.2206 82.6799 45.851 79.6238C43.9872 80.273 42.5475 81.5664 40.5014 81.8997C39.6849 80.3562 39.3413 78.5017 40.2923 76.9495C40.8186 75.8662 42.6175 76.651 43.4553 75.9012C44.7233 74.9279 44.5296 73.2093 43.7402 72.0645C42.4029 70.3632 40.2813 69.197 38.2028 68.1667C39.0138 69.0128 40.0074 69.7322 40.7968 70.6002C41.4896 71.3895 41.7476 72.6696 40.5818 73.2528C39.7175 72.8233 38.7666 72.5907 37.7621 72.5516C36.2639 74.7874 36.7902 77.3747 36.5915 79.808C34.8511 77.5983 33.3584 75.0284 33.5625 72.3366C33.9869 72.3016 34.8355 72.236 35.2597 72.2009C35.1362 68.5783 30.034 65.8558 25.8881 67.0789ZM74.6593 79.5227C66.6464 82.5832 59.6591 87.4809 54.965 93.6194C48.6922 101.779 46.3291 111.763 47.9992 121.274C49.3367 128.601 52.1993 135.778 56.7265 142.211C59.2349 139.102 59.245 135.125 61.5387 131.946C64.1596 129.832 68.1825 129.872 71.5604 129.157C72.3768 128.925 73.7623 128.912 73.7251 127.969C66.3347 122.642 59.9274 115.477 59.3793 107.177C62.3713 113.447 67.1404 119.472 74.3965 122.94C77.989 124.593 81.9476 126.115 86.1743 126.001C83.6499 125.426 81.1098 124.79 78.8695 123.646C73.048 120.831 69.0843 116.122 66.0714 111.289C65.3082 109.939 63.6005 108.558 64.4064 106.966C65.0183 105.94 66.6999 106.182 67.7898 106.458C77.8382 109.474 88.8484 110.72 99.4613 109.251C107.286 108.063 115.042 105.532 120.944 101.069C116.084 103.025 111.223 105.059 105.981 106.274C98.3598 108.075 90.0032 109.027 82.3337 106.865C79.2508 106.033 76.2652 104.888 73.6278 103.34C72.8919 102.915 72.0061 101.937 72.9617 101.323C74.3745 100.367 76.3345 100.297 78.0801 100.153C85.578 99.955 93.0969 99.2933 100.369 97.741C107.942 96.0833 115.471 93.4701 121.154 88.9452C122.803 87.4983 124.586 85.9595 125.112 83.9598C123.033 85.2751 121.53 87.1125 119.322 88.3182C111.314 93.0711 101.411 95.0618 91.7539 96.167C86.711 96.6799 81.4208 97.2058 76.5333 95.7239C73.6707 94.9038 70.7866 93.4266 69.8414 90.9314C68.4557 92.2687 67.3603 93.9262 65.4 94.7638C64.5085 95.1453 64.2503 94.1893 64.2127 93.6719C63.8587 91.9925 65.2545 90.6203 66.3237 89.3311C69.4762 85.8103 72.3277 82.0611 76.2969 79.0928C75.7416 79.211 75.1949 79.3545 74.6593 79.5227ZM121.331 95.2375C109 101.196 94.2196 102.595 80.143 102.073C79.2356 102.025 77.3559 102.161 77.8178 103.283C79.9125 104.778 82.9144 104.809 85.5463 104.963C99.7409 105.199 114.586 101.999 125.316 94.1149C126.525 93.1901 127.959 92.3436 128.571 91.0371C126.154 92.4354 123.936 94.062 121.331 95.2375ZM116.116 107.243C120.193 108.308 124.425 109.255 128.012 111.242C128.92 111.807 130.198 112.719 129.532 113.758C128.527 115.117 126.562 115.758 124.736 116.06C122.427 116.429 120.321 115.416 118.307 114.671C121.079 117.762 125.853 119.191 130.45 118.744C129.919 117.972 129.586 117.13 129.747 116.244C133.142 115.512 137.175 116.218 139.85 118.117C138.367 114.373 135.08 111.128 130.762 109.361C126.278 107.519 121.084 106.896 116.116 107.243ZM68.1182 108.374C68.2956 109.036 68.2901 109.786 68.8325 110.347C71.1205 112.939 74.4555 114.811 78.022 116.06C85.981 118.849 95.1166 119.182 103.457 117.442C98.3878 117.56 93.2856 117.468 88.3014 116.635C81.7653 115.679 75.0408 113.509 70.8355 109.12C70.1964 108.413 69.0632 108.466 68.1182 108.374ZM115.864 117.555C117.512 119.704 120.429 120.932 123.377 121.511C123.984 122.449 125.322 123.72 124.124 124.715C122.266 125.847 119.672 125.439 117.626 124.895C113.308 123.562 110.698 120.278 108.195 117.314C109.988 121.756 114.022 125.636 119.334 127.487C125.322 129.718 132.315 128.947 138.255 127.009C135.059 126.851 131.59 127.184 128.679 125.877C127.019 125.124 126.971 123.335 127.841 122.115C132.223 122.672 136.579 121.247 140.967 121.83C144.447 122.181 148.33 123.374 149.791 126.206C151.934 130.323 150.731 134.967 149.093 139.058C146.649 144.723 143.583 150.23 139.667 155.321C138.195 157.162 136.692 159.025 134.689 160.512C130.645 163.327 125.773 165.234 120.757 166.585C112.411 168.891 103.307 170.101 94.6176 168.426C90.2943 167.615 86.4057 165.34 84.3814 162.086C80.2993 155.698 79.7785 148.248 80.3856 141.189C77.2439 143.597 73.3388 145.815 68.8545 145.797C66.126 145.732 62.8985 144.372 62.8393 141.869C63.1829 139.637 65.5889 138.05 67.9311 137.138C70.0415 136.331 72.5978 137.519 73.3388 139.216C73.3872 140.391 71.6689 140.927 70.4978 141.163C69.0207 140.948 68.1618 139.861 66.9964 139.212C66.7331 140.571 66.9156 142.255 68.5752 142.987C71.2984 144.153 74.8856 143.654 77.2544 142.132C80.6222 139.414 81.2877 134.011 77.3242 131.46C73.914 129.719 69.6767 130.903 66.121 131.714C63.5159 132.297 62.0818 134.367 61.5933 136.401C60.6965 139.835 59.2463 143.219 56.6952 146.078C59.0799 146.241 61.7708 146.512 63.4732 148.038C64.999 149.477 64.7839 151.577 64.0374 153.251C63.3337 154.795 63.0435 156.58 64.0964 158.07C66.218 161.227 71.2665 161.837 73.608 164.827C74.5803 166.239 74.4995 167.945 75.2728 169.422C75.8637 170.444 77.2113 171.005 78.5272 171.181C81.3632 171.601 84.3653 171.614 86.9914 172.693C89.5749 173.772 89.8384 176.845 92.765 177.573C95.0638 178.06 97.1744 176.779 99.4303 176.591C101.933 176.029 104.522 176.429 106.928 177.095C109.882 177.898 113.356 177.863 115.935 176.297C119.222 174.302 122.186 171.891 125.951 170.47C129.845 168.861 134.442 168.734 138.186 166.849C140.27 165.818 141.199 163.862 141.687 162.008C142.713 158.048 143.986 154.036 146.666 150.581C148.078 148.722 150.431 147.407 151.483 145.355C153.288 141.873 153.277 138.014 154.395 134.389C154.991 132.253 157.424 130.556 156.951 128.228C156.371 126.303 155.216 124.519 154.083 122.778C152.821 120.879 150.565 119.384 147.875 119.16C142.09 118.77 136.333 119.63 130.597 120.09C126.537 120.353 122.09 119.897 118.841 117.731C116.209 116.025 115.054 113.311 114.555 110.689C113.818 112.978 114.338 115.543 115.864 117.555ZM155.919 123.422C155.801 124.093 156.139 124.4 156.929 124.339C158.105 124.093 158.502 123.089 158.926 122.278C157.901 122.615 156.816 122.883 155.919 123.422ZM155.424 134.84C155.452 135.147 155.51 135.765 155.543 136.076C157.503 136.83 159.538 135.664 160.859 134.537C159.05 134.735 157.159 134.292 155.424 134.84ZM88.2204 139.22C86.3623 140.478 86.9423 143.153 89.3109 143.719C89.4716 145.644 88.2688 147.547 86.3947 148.682C85.6856 149.156 84.386 149.134 84.1551 148.279C83.7681 146.937 83.7952 145.442 82.5274 144.394C82.0282 148.88 82.7744 153.453 84.5251 157.719C84.6594 156.636 84.563 155.079 86.1312 154.681C89.0582 154.128 91.8024 155.693 94.7244 155.435C96.4002 155.298 97.8341 154.492 99.4618 154.189C100.676 154.053 101.862 154.658 103.076 154.399C104.419 153.102 105.348 151.216 107.593 150.817C109.864 150.457 111.777 151.769 113.694 152.527C111.83 149.813 107.497 148.59 103.898 149.388C101.911 149.717 100.955 151.545 98.9249 151.804C97.0287 152.045 95.0951 151.865 93.1942 151.773C92.7967 150.659 94.2841 149.866 95.3744 149.506C98.4091 148.555 101.325 146.822 102.459 144.245C103.006 143.184 102.716 141.982 103.183 140.921C105.068 140.014 107.109 141.232 108.974 141.579C107.824 140.237 105.735 139.72 103.812 139.768C101.293 139.72 98.4734 140.378 97.0771 142.224C97.4692 142.649 98.8388 142.877 98.3765 143.596C96.6793 145.924 93.6666 147.305 91.0079 148.801C91.9798 146.433 94.5899 144.534 94.5309 141.89C94.128 140.636 91.8669 141.263 90.9813 140.281C91.9908 138.278 94.703 137.83 96.9477 137.212C93.9295 137.321 90.6753 137.668 88.2204 139.22ZM57.9887 148.774C53.9716 150.954 52.049 154.908 51.6835 158.715C53.4397 155.636 57.8384 154.992 61.1628 153.514C62.7041 152.949 62.7686 151.414 62.57 150.234C62.484 148.502 59.514 147.753 57.9887 148.774ZM145.699 153.378C144.957 154.167 145.8 155.149 146.815 155.382C149.189 155.987 151.702 155.167 153.722 154.145C152.095 154.145 150.618 153.659 149.232 153.023C148.142 152.501 146.37 152.264 145.699 153.378ZM70.207 164.414C66.2544 166.002 63.7248 169.487 63.4779 173.039C65.0245 170.698 68.3544 170.035 71.1364 169.084C72.377 168.733 73.623 168.023 73.5638 166.821C74.0207 165.252 72.0222 163.897 70.207 164.414ZM124.441 173.824C125.628 175.92 127.851 177.73 130.553 178.502C129.677 177.34 128.952 176.078 128.813 174.696C128.577 173.504 128.7 171.741 126.869 171.403C125.129 170.978 123.705 172.504 124.441 173.824ZM82.0445 174.052C79.66 176.454 78.9131 179.695 79.1711 182.72C80.0569 179.848 83.8064 178.871 86.3841 177.235C88.2475 176.305 87.8609 173.754 86.0508 172.951C84.585 172.671 82.984 173.096 82.0445 174.052ZM101.314 177.643C98.6774 179.866 98.3875 183.321 98.9997 186.224C99.7673 183.589 102.968 182.414 104.838 180.423C106.25 178.682 103.371 176.521 101.314 177.643Z" fill="#ED1C24"/>
<path d="M129.618 60.7302C131.331 61.1597 133.131 61.3 134.871 61.6508C135.88 62.2825 136.031 63.4004 136.444 64.3167C133.308 64.6411 131.273 62.541 129.618 60.7302Z" fill="#ED1C24"/>
</g>
<defs>
<clipPath id="clip0_2311_1333">
<rect width="196" height="196" fill="white"/>
</clipPath>
</defs>
</svg>
