<svg width="196" height="196" viewBox="0 0 196 196" fill="none" xmlns="http://www.w3.org/2000/svg">
<path fill-rule="evenodd" clip-rule="evenodd" d="M117.749 55.0471C117.443 55.1367 117.364 55.274 117.061 55.5334C116.817 55.7421 116.611 55.8903 116.374 56.0943C115.831 56.5613 115.513 56.8501 115.036 57.2511C112.669 59.2422 109.458 62.3445 107.138 64.5171C103.538 67.8874 100.295 71.1331 96.8415 74.4851C90.3293 80.8066 82.9495 88.3971 76.4315 94.4916C71.0449 99.5281 66.4248 104.051 60.7958 109.086C58.6445 111.011 57.2893 112.763 54.3603 112.865C49.5265 113.032 43.1502 108.917 39.8893 107.046C37.0399 105.412 29.4717 100.961 25.8233 100.837L28.4963 104.509C30.4076 107.426 33.6212 113.778 35.1645 116.869C40.467 127.488 47.6253 138.608 56.7361 146.005C59.0656 147.897 61.1764 149.486 64.1353 151.277C65.4333 152.062 66.7575 152.715 68.209 153.537C68.7122 153.822 72.202 155.451 72.6321 155.45C71.6763 154.493 70.6932 153.322 69.9166 152.409C66.4481 148.33 58.7323 140.399 56.4148 136.352C54.4688 132.953 54.0217 130.872 56.1841 127.46C58.656 123.561 64.4205 118.735 68.0367 115.642C76.837 108.116 84.7733 101.298 93.9809 94.1524C98.3437 90.7664 102.88 87.3125 107.571 83.9645C112.174 80.6804 116.8 77.5166 121.605 74.3405L128.86 69.7236C129.533 69.3376 136.141 65.4034 136.247 65.2716L142.713 61.7045C144.885 60.4778 146.993 59.4537 149.293 58.2152C156.041 54.5814 169.443 48.6586 177.122 45.9494C179.643 45.0601 182.045 44.2202 184.595 43.349L192.237 40.9552C191.618 40.6373 183.175 40.5497 181.619 40.5495C175.359 40.5486 171.517 40.7232 165.541 41.1954C160.966 41.5568 152.454 42.4959 148.294 43.5016C147.545 43.6826 146.659 43.7599 145.905 43.9585C144.462 44.3384 142.811 44.5999 141.334 44.9676C138.288 45.726 135.523 46.5852 132.661 47.4387C129.714 48.3171 127.049 49.3584 124.413 50.4429C122.856 51.0836 118.149 54.23 117.749 55.0473L117.749 55.0471ZM178.901 70.1701L184.458 67.3324C186.386 66.4146 188.379 65.3595 190.195 64.4723C193.878 62.6723 196 56.8399 195.946 53.101C195.296 53.1283 192.65 54.3826 191.931 54.6457C191.437 54.8264 190.981 54.982 190.519 55.1787C187.237 56.573 182.856 58.2218 179.745 59.6898C178.842 60.1161 177.969 60.4687 177.055 60.8609C176.337 61.1687 174.755 61.7895 174.46 62.1557C173.473 62.1055 153.367 72.0689 150.861 73.3649C147.292 75.2099 142.805 77.4214 139.376 79.3295C138.97 79.5555 128.514 85.089 128.098 85.6219C127.409 85.7368 120.243 89.9925 119.099 90.638C104.918 98.6399 89.212 108.706 75.6286 117.919C71.8537 120.479 67.0321 123.838 63.2379 126.697L60.1924 128.97C59.8423 129.237 59.4293 129.414 59.2276 129.815C60.5818 130.98 69.5531 134.677 71.6933 135.448C83.7056 139.777 94.9487 142.794 107.587 144.963L115.608 146.19L121.926 146.747L116.78 146.293C117.762 146.405 118.737 146.564 119.692 146.656C121.105 146.791 122.507 146.906 123.962 147.052C126.704 147.327 129.886 147.514 132.704 147.564C136.207 147.625 138.137 147.804 141.009 146.591C143.236 145.651 145.048 144.482 146.818 143.125C153.409 138.074 159.274 130.173 163.952 123.023C168.848 115.54 173.258 107.18 177.06 98.8966C178.996 94.678 180.812 90.2763 182.523 85.7924C183.39 83.5197 184.142 81.3247 184.924 78.9131C185.358 77.5781 186.936 72.704 187.056 71.615C185.257 71.8606 153.818 88.8235 150.827 90.4295C146.769 92.6076 142.884 94.8765 138.948 97.0145C135.123 99.0922 131.076 101.548 127.27 103.663C119.536 107.962 111.748 112.749 104.025 117.221C102.701 117.988 92.8666 123.737 92.5134 124.141C93.1744 124.035 124.353 110.645 125.108 110.333C126.578 109.725 157.191 96.5886 157.693 96.5667C157.517 97.2746 155.622 100.812 155.144 101.852C154.347 103.584 153.386 105.556 152.515 107.279C147.579 117.044 142.221 128.77 131.443 133.099L130.795 133.488C130.218 133.501 128.64 134.142 127.944 134.333C126.896 134.621 125.884 134.821 124.828 135.037C119.86 136.054 112.35 135.524 107.173 134.714C101.27 133.79 97.1362 132.754 91.414 131.371C90.0479 131.04 80.1749 128.267 79.6045 127.89C79.9262 127.33 85.5726 123.711 86.0667 123.368C96.9921 115.774 115.14 104.615 126.942 97.9004C128.191 97.1895 129.352 96.5438 130.494 95.8893C131.443 95.3451 133.181 94.438 133.948 93.8807L139.47 90.8519C141.337 89.8161 143.052 88.9187 145.019 87.7962C148.737 85.6746 152.504 83.896 156.164 81.8345C156.702 81.5315 177.6 70.55 178.901 70.1703L178.901 70.1701ZM36.8377 127.491C36.6206 127.03 32.847 123.026 32.0973 122.189C27.3383 116.875 22.7248 111.926 17.9416 106.343C14.6093 102.454 11.6409 98.8704 8.80888 95.4343C7.62378 93.9965 1.12041 85.8329 0.126872 84.1683C-6.72042e-06 84.4883 1.6372 91.1803 1.87897 92.0597C2.24965 93.4085 2.53643 94.6377 2.91458 96.0141C6.61011 109.469 10.3032 114.56 23.0288 121.063C24.5963 121.864 35.9916 127.375 36.8377 127.491Z" fill="#E50007"/>
</svg>
